<svg width="206" height="33" viewBox="0 0 206 33" fill="none" xmlns="http://www.w3.org/2000/svg">
<g clip-path="url(#clip0_5_922)">
<path fill-rule="evenodd" clip-rule="evenodd" d="M11.277 6.8067H32.5469C33.2726 6.8067 33.8309 7.36462 33.8309 8.08992C33.8309 8.81522 33.2726 9.37315 32.5469 9.37315H12.7843L9.65799 15.3987H33.3285C35.3382 15.3987 37.1247 14.5618 38.4645 13.2786C39.8043 11.9396 40.5859 10.1542 40.5859 8.14571C40.5859 6.13719 39.7485 4.35183 38.4645 3.01281C37.1247 1.67379 35.3382 0.8927 33.3285 0.8927H7.64824L0 15.3429H6.81084L11.277 6.8067Z" fill="#99834D"/>
<path fill-rule="evenodd" clip-rule="evenodd" d="M11.277 26.4455H32.5469C33.2726 26.4455 33.8309 25.8876 33.8309 25.1623C33.8309 24.437 33.2726 23.8791 32.5469 23.8791H12.7843L9.65799 17.8535H33.3285C35.3382 17.8535 37.1247 18.6904 38.4645 19.9736C39.8043 21.3126 40.5859 23.098 40.5859 25.1065C40.5859 27.1151 39.7485 28.9004 38.4645 30.2394C37.1247 31.5785 35.3382 32.3595 33.3285 32.3595H7.64824L0 17.9093H6.81084L11.277 26.4455Z" fill="#99834D"/>
<path d="M185.679 32.4713H191.988V14.4503C193.048 13.9482 194.165 13.6134 195.225 13.6134C198.24 13.6134 199.747 15.3988 199.747 18.9695V32.4155H206V16.8494C206 11.5491 203.153 9.09424 199.412 9.09424C195.84 9.09424 193.495 11.047 191.932 13.5018V9.20582L185.623 9.93112V32.4713H185.679Z" fill="#110134"/>
<path d="M171.052 29.6816C167.815 29.6816 165.916 25.8878 165.916 19.8064C165.916 14.6735 167.87 12.3302 170.55 12.3302C173.788 12.3302 175.686 16.1241 175.686 22.2612C175.742 27.2826 173.732 29.6816 171.052 29.6816ZM170.718 32.9176C177.863 32.9176 182.664 27.3384 182.664 20.6433C182.664 13.2787 177.305 9.09424 170.941 9.09424C163.739 9.09424 158.938 14.6735 158.938 21.3686C158.938 28.7332 164.297 32.9176 170.718 32.9176Z" fill="#110134"/>
<path d="M149.671 32.4711H155.979V9.20569L149.671 9.93099V32.4711Z" fill="#110134"/>
<path d="M138.841 32.4712H145.149V0L138.841 0.836886V32.4712Z" fill="#110134"/>
<path d="M128.01 32.4712H134.319V0L128.01 0.836886V32.4712Z" fill="#110134"/>
<path d="M123.489 9.20569L117.18 9.93099V27.5614C116.175 28.0635 115.115 28.3983 113.998 28.3983C111.039 28.3983 109.588 26.6129 109.588 23.0422V9.20569L103.279 9.93099V25.1065C103.279 30.4626 106.071 32.8617 109.755 32.8617C113.328 32.8617 115.673 30.9647 117.124 28.4541V32.3595H123.433V9.20569H123.489Z" fill="#110134"/>
<path d="M86.922 32.4712C93.9003 32.4712 100.041 29.4584 100.041 23.0981C100.041 18.021 96.58 15.4545 89.6575 15.3429C95.1285 15.0082 98.5897 12.2186 98.5897 7.97834C98.5897 3.29178 94.7935 0.836914 86.9778 0.836914H77.5431V32.4712H86.922V32.4712ZM86.4753 4.18446C89.2108 4.18446 91.4997 5.46768 91.4997 8.87102C91.4997 11.828 89.8249 14.0039 86.3637 14.0039H84.3539V4.18446H86.4753ZM86.6987 17.1841C89.9366 17.1841 92.7837 18.8021 92.7837 23.2655C92.7837 27.2267 90.3274 29.1237 86.6987 29.1237H84.3539V17.1841H86.6987Z" fill="#110134"/>
<path d="M73.7469 17.4073C73.8028 17.1283 73.8028 16.961 73.8028 16.7936C73.8028 13.2229 70.7881 9.09424 64.4239 9.09424C58.0038 9.09424 53.3702 14.3387 53.3702 21.3686C53.3702 28.2868 58.4505 32.9176 64.4239 32.9176C69.7832 32.9176 73.3561 29.9606 73.7469 25.4972C72.3513 26.892 70.0065 27.7847 67.3827 27.7847C64.3122 27.7847 60.6835 26.1109 59.6228 21.6475L73.7469 17.4073ZM63.754 12.2186C65.8196 12.2186 67.6618 13.725 67.4385 18.021H59.232C59.3995 14.2271 61.4093 12.2186 63.754 12.2186Z" fill="#110134"/>
</g>
<g clip-path="url(#clip1_5_922)">
<path d="M156.093 1.06177H149.722V5.30919H156.093V1.06177Z" fill="#110134"/>
</g>
<defs>
<clipPath id="clip0_5_922">
<rect width="206" height="32.9175" fill="white"/>
</clipPath>
<clipPath id="clip1_5_922">
<rect width="6.37113" height="4.24742" fill="white" transform="translate(149.722 1.06177)"/>
</clipPath>
</defs>
</svg>
