<svg width="26" height="28" viewBox="0 0 26 28" fill="none" xmlns="http://www.w3.org/2000/svg">
<path d="M23.5744 7.84439C23.538 7.59017 23.4382 7.39043 23.2748 7.24517C23.1113 7.0999 22.9207 7.02727 22.7028 7.02727H18.3448V5.28408C18.3448 3.83142 17.8364 2.59666 16.8195 1.5798C15.8026 0.562937 14.5679 0.0545063 13.1152 0.0545063C11.6626 0.0545063 10.4278 0.562937 9.41094 1.5798C8.39408 2.59666 7.88565 3.83142 7.88565 5.28408V7.02727H3.52767C3.30978 7.02727 3.11911 7.0999 2.95569 7.24517C2.79227 7.39043 2.69239 7.59017 2.65608 7.84439L0.912888 27.0195C0.876571 27.2737 0.949204 27.4916 1.13079 27.6732C1.31237 27.8548 1.53027 27.9456 1.78448 27.9456H24.446C24.7002 27.9456 24.9181 27.8548 25.0997 27.6732C25.2812 27.4916 25.3539 27.2737 25.3176 27.0195L23.5744 7.84439ZM9.62884 5.28408C9.62884 4.33985 9.97385 3.52273 10.6639 2.83272C11.3539 2.1427 12.171 1.7977 13.1152 1.7977C14.0595 1.7977 14.8766 2.1427 15.5666 2.83272C16.2566 3.52273 16.6016 4.33985 16.6016 5.28408V7.02727H9.62884V5.28408ZM2.76503 26.2024L4.34479 8.77046H7.88565V10.7315C7.30459 11.0947 7.01406 11.6031 7.01406 12.2568C7.01406 12.729 7.18656 13.1375 7.53157 13.4825C7.87657 13.8275 8.28513 14 8.75725 14C9.22936 14 9.63792 13.8275 9.98293 13.4825C10.3279 13.1375 10.5004 12.729 10.5004 12.2568C10.5004 11.6031 10.2099 11.0947 9.62884 10.7315V8.77046H16.6016V10.7315C16.0205 11.0947 15.73 11.6031 15.73 12.2568C15.73 12.729 15.9025 13.1375 16.2475 13.4825C16.5925 13.8275 17.0011 14 17.4732 14C17.9453 14 18.3539 13.8275 18.6989 13.4825C19.0439 13.1375 19.2164 12.729 19.2164 12.2568C19.2164 11.6031 18.9259 11.0947 18.3448 10.7315V8.77046H21.8857L23.4654 26.2024H2.76503Z" fill="white"/>
</svg>
