<svg width="30" height="27" viewBox="0 0 30 27" fill="none" xmlns="http://www.w3.org/2000/svg">
<path d="M11.7681 4.33333V4.66667H18.0444V4.33333C18.0444 3.62609 17.7138 2.94781 17.1253 2.44772C16.5368 1.94762 15.7386 1.66667 14.9063 1.66667C14.074 1.66667 13.2758 1.94762 12.6873 2.44772C12.0987 2.94781 11.7681 3.62609 11.7681 4.33333ZM9.80676 4.66667V4.33333C9.80676 3.18406 10.344 2.08186 11.3004 1.2692C12.2567 0.456546 13.5538 0 14.9063 0C16.2588 0 17.5558 0.456546 18.5122 1.2692C19.4685 2.08186 20.0058 3.18406 20.0058 4.33333V4.66667H28.8319C29.092 4.66667 29.3414 4.75446 29.5253 4.91074C29.7092 5.06702 29.8126 5.27899 29.8126 5.5C29.8126 5.72101 29.7092 5.93297 29.5253 6.08926C29.3414 6.24554 29.092 6.33333 28.8319 6.33333H26.5434L24.9743 22.2373C24.8551 23.4451 24.2062 24.5707 23.1564 25.3911C22.1065 26.2115 20.7323 26.6667 19.306 26.6667H10.5066C9.08043 26.6666 7.70637 26.2112 6.65667 25.3908C5.60698 24.5705 4.95826 23.445 4.83905 22.2373L3.26997 6.33333H0.980676C0.720585 6.33333 0.471146 6.24554 0.287233 6.08926C0.103321 5.93297 0 5.72101 0 5.5C0 5.27899 0.103321 5.06702 0.287233 4.91074C0.471146 4.75446 0.720585 4.66667 0.980676 4.66667H9.80676ZM12.9449 10.8333C12.9449 10.7239 12.9196 10.6155 12.8703 10.5144C12.821 10.4133 12.7488 10.3215 12.6577 10.2441C12.5666 10.1667 12.4585 10.1053 12.3395 10.0634C12.2206 10.0216 12.093 10 11.9643 10C11.8355 10 11.7079 10.0216 11.589 10.0634C11.47 10.1053 11.3619 10.1667 11.2708 10.2441C11.1797 10.3215 11.1075 10.4133 11.0582 10.5144C11.0089 10.6155 10.9836 10.7239 10.9836 10.8333V20.5C10.9836 20.6094 11.0089 20.7178 11.0582 20.8189C11.1075 20.92 11.1797 21.0119 11.2708 21.0893C11.3619 21.1666 11.47 21.228 11.589 21.2699C11.7079 21.3118 11.8355 21.3333 11.9643 21.3333C12.093 21.3333 12.2206 21.3118 12.3395 21.2699C12.4585 21.228 12.5666 21.1666 12.6577 21.0893C12.7488 21.0119 12.821 20.92 12.8703 20.8189C12.9196 20.7178 12.9449 20.6094 12.9449 20.5V10.8333ZM17.8483 10C17.307 10 16.8676 10.3733 16.8676 10.8333V20.5C16.8676 20.721 16.971 20.933 17.1549 21.0893C17.3388 21.2455 17.5882 21.3333 17.8483 21.3333C18.1084 21.3333 18.3578 21.2455 18.5418 21.0893C18.7257 20.933 18.829 20.721 18.829 20.5V10.8333C18.829 10.3733 18.3896 10 17.8483 10Z" fill="#ED0F0F"/>
</svg>
