<svg width="27" height="30" viewBox="0 0 27 30" fill="none" xmlns="http://www.w3.org/2000/svg">
<path d="M24.4261 8.37891C24.387 8.10547 24.2796 7.89063 24.1038 7.73438C23.928 7.57812 23.723 7.5 23.4886 7.5H18.8011V5.625C18.8011 4.0625 18.2542 2.73437 17.1605 1.64062C16.0667 0.546875 14.7386 0 13.1761 0C11.6136 0 10.2855 0.546875 9.19171 1.64062C8.09796 2.73437 7.55109 4.0625 7.55109 5.625V7.5H2.86359C2.62921 7.5 2.42413 7.57812 2.24835 7.73438C2.07257 7.89063 1.96515 8.10547 1.92609 8.37891L0.0510864 29.0039C0.0120239 29.2773 0.0901489 29.5117 0.285461 29.707C0.480774 29.9023 0.715149 30 0.988586 30H25.3636C25.637 30 25.8714 29.9023 26.0667 29.707C26.262 29.5117 26.3401 29.2773 26.3011 29.0039L24.4261 8.37891ZM9.42609 5.625C9.42609 4.60937 9.79718 3.73047 10.5394 2.98828C11.2816 2.24609 12.1605 1.875 13.1761 1.875C14.1917 1.875 15.0706 2.24609 15.8128 2.98828C16.555 3.73047 16.9261 4.60937 16.9261 5.625V7.5H9.42609V5.625ZM2.04327 28.125L3.74249 9.375H7.55109V11.4844C6.92609 11.875 6.61359 12.4219 6.61359 13.125C6.61359 13.6328 6.79913 14.0723 7.17023 14.4434C7.54132 14.8145 7.98077 15 8.48859 15C8.9964 15 9.43585 14.8145 9.80695 14.4434C10.178 14.0723 10.3636 13.6328 10.3636 13.125C10.3636 12.4219 10.0511 11.875 9.42609 11.4844V9.375H16.9261V11.4844C16.3011 11.875 15.9886 12.4219 15.9886 13.125C15.9886 13.6328 16.1741 14.0723 16.5452 14.4434C16.9163 14.8145 17.3558 15 17.8636 15C18.3714 15 18.8109 14.8145 19.1819 14.4434C19.553 14.0723 19.7386 13.6328 19.7386 13.125C19.7386 12.4219 19.4261 11.875 18.8011 11.4844V9.375H22.6097L24.3089 28.125H2.04327Z" fill="#CFA04F"/>
</svg>
