<svg width="33" height="33" viewBox="0 0 33 33" fill="none" xmlns="http://www.w3.org/2000/svg">
<path d="M26.2606 2.70605L30.2954 6.74086L27.2195 9.81808L23.1847 5.78327L26.2606 2.70605ZM11.4824 21.519H15.5172L25.3178 11.7185L21.283 7.68367L11.4824 17.4842V21.519Z" fill="#552984"/>
<path d="M26.2768 25.5537H11.695C11.66 25.5537 11.6237 25.5671 11.5887 25.5671C11.5444 25.5671 11.5 25.555 11.4543 25.5537H7.44769V6.72454H16.6565L19.3463 4.03467H7.44769C5.96422 4.03467 4.75781 5.23973 4.75781 6.72454V25.5537C4.75781 27.0385 5.96422 28.2435 7.44769 28.2435H26.2768C26.9902 28.2435 27.6744 27.9601 28.1788 27.4557C28.6833 26.9512 28.9667 26.2671 28.9667 25.5537V13.8957L26.2768 16.5856V25.5537Z" fill="#552984"/>
</svg>
