<svg width="35" height="30" viewBox="0 0 35 30" fill="none" xmlns="http://www.w3.org/2000/svg">
<path d="M32.51 9.14062C32.51 8.08594 32.37 7.15495 32.0901 6.34766C31.8101 5.54036 31.4521 4.89909 31.0159 4.42383C30.5797 3.94857 30.0491 3.5612 29.4241 3.26172C28.7991 2.96224 28.1871 2.76042 27.5881 2.65625C26.9892 2.55208 26.3512 2.5 25.6741 2.5C24.997 2.5 24.2678 2.66602 23.4866 2.99805C22.7053 3.33008 21.9859 3.74674 21.3284 4.24805C20.6708 4.74935 20.1077 5.2181 19.6389 5.6543C19.1702 6.09049 18.7795 6.49089 18.467 6.85547C18.2327 7.14193 17.9137 7.28516 17.51 7.28516C17.1064 7.28516 16.7874 7.14193 16.553 6.85547C16.2405 6.49089 15.8499 6.09049 15.3811 5.6543C14.9124 5.2181 14.3492 4.74935 13.6917 4.24805C13.0341 3.74674 12.3147 3.33008 11.5334 2.99805C10.7522 2.66602 10.023 2.5 9.34595 2.5C8.66886 2.5 8.03084 2.55208 7.43189 2.65625C6.83293 2.76042 6.22095 2.96224 5.59595 3.26172C4.97095 3.5612 4.44035 3.94857 4.00415 4.42383C3.56795 4.89909 3.20988 5.54036 2.92993 6.34766C2.64998 7.15495 2.51001 8.08594 2.51001 9.14062C2.51001 11.3281 3.72746 13.6393 6.16235 16.0742L17.51 27.0117L28.8381 16.0938C31.2861 13.6458 32.51 11.3281 32.51 9.14062ZM35.01 9.14062C35.01 12.0182 33.5191 14.9479 30.5374 17.9297L18.3694 29.6484C18.135 29.8828 17.8486 30 17.51 30C17.1715 30 16.885 29.8828 16.6506 29.6484L4.46314 17.8906C4.33293 17.7865 4.15389 17.6172 3.92603 17.3828C3.69816 17.1484 3.33683 16.722 2.84204 16.1035C2.34725 15.485 1.90454 14.8503 1.51392 14.1992C1.12329 13.5482 0.774984 12.7604 0.468994 11.8359C0.163005 10.9115 0.0100098 10.013 0.0100098 9.14062C0.0100098 6.27604 0.836833 4.03646 2.49048 2.42188C4.14412 0.807292 6.42928 0 9.34595 0C10.1532 0 10.9768 0.139974 11.8167 0.419922C12.6565 0.69987 13.4377 1.07747 14.1604 1.55273C14.8831 2.02799 15.5048 2.47396 16.0256 2.89062C16.5465 3.30729 17.0413 3.75 17.51 4.21875C17.9788 3.75 18.4736 3.30729 18.9944 2.89062C19.5152 2.47396 20.137 2.02799 20.8596 1.55273C21.5823 1.07747 22.3635 0.69987 23.2034 0.419922C24.0432 0.139974 24.8668 0 25.6741 0C28.5907 0 30.8759 0.807292 32.5295 2.42188C34.1832 4.03646 35.01 6.27604 35.01 9.14062Z" fill="#CFA04F"/>
</svg>
