<svg width="26" height="30" viewBox="0 0 26 30" fill="none" xmlns="http://www.w3.org/2000/svg">
<path d="M21.6194 15.209C21.5123 15.0995 21.3845 15.0125 21.2435 14.953C21.1024 14.8934 20.9509 14.8626 20.7978 14.8622C20.6446 14.8618 20.493 14.8919 20.3516 14.9507C20.2102 15.0095 20.082 15.0959 19.9743 15.2048C19.8667 15.3136 19.7817 15.4429 19.7245 15.5849C19.6673 15.7269 19.639 15.8789 19.6411 16.032C19.6432 16.1851 19.6758 16.3363 19.7369 16.4767C19.798 16.6171 19.8865 16.7439 19.9971 16.8497C20.9761 17.813 21.7527 18.9621 22.2816 20.2296C22.8104 21.4971 23.0807 22.8574 23.0767 24.2308C23.0767 25.6419 19.0314 27.6923 12.6922 27.6923C6.35306 27.6923 2.30772 25.6408 2.30772 24.2285C2.30379 22.8645 2.57048 21.5132 3.09237 20.253C3.61425 18.9927 4.38095 17.8485 5.34807 16.8866C5.45827 16.7802 5.54618 16.6529 5.60665 16.5121C5.66712 16.3713 5.69895 16.2199 5.70028 16.0667C5.70161 15.9135 5.67242 15.7616 5.6144 15.6198C5.55639 15.478 5.47071 15.3492 5.36237 15.2408C5.25404 15.1325 5.12521 15.0468 4.98341 14.9888C4.84161 14.9308 4.68967 14.9016 4.53646 14.9029C4.38326 14.9042 4.23185 14.9361 4.09108 14.9965C3.95031 15.057 3.82299 15.1449 3.71655 15.2551C2.53428 16.4311 1.59705 17.8299 0.959104 19.3706C0.321161 20.9113 -0.00481394 22.5633 5.37208e-05 24.2308C5.37208e-05 27.9784 6.53883 30 12.6922 30C18.8456 30 25.3844 27.9784 25.3844 24.2308C25.3895 22.552 25.0591 20.8891 24.4125 19.3399C23.766 17.7906 22.8164 16.3861 21.6194 15.209Z" fill="#CFA04F"/>
<path d="M12.6923 16.1537C14.2898 16.1537 15.8513 15.68 17.1796 14.7925C18.5078 13.905 19.543 12.6436 20.1543 11.1677C20.7657 9.69186 20.9256 8.06788 20.614 6.50112C20.3023 4.93437 19.5331 3.49522 18.4035 2.36565C17.2739 1.23609 15.8348 0.466844 14.268 0.155198C12.7013 -0.156449 11.0773 0.00349956 9.60144 0.614816C8.12559 1.22613 6.86416 2.26136 5.97667 3.58959C5.08918 4.91782 4.61548 6.47939 4.61548 8.07684C4.61792 10.2182 5.46966 12.2711 6.98383 13.7853C8.498 15.2995 10.551 16.1512 12.6923 16.1537ZM12.6923 2.30767C13.8333 2.30767 14.9488 2.64603 15.8975 3.27995C16.8462 3.91387 17.5857 4.81489 18.0223 5.86907C18.459 6.92325 18.5732 8.08324 18.3506 9.20234C18.128 10.3215 17.5786 11.3494 16.7717 12.1563C15.9649 12.9631 14.9369 13.5125 13.8178 13.7351C12.6987 13.9578 11.5387 13.8435 10.4845 13.4069C9.43037 12.9702 8.52935 12.2307 7.89543 11.282C7.2615 10.3333 6.92315 9.21787 6.92315 8.07684C6.92498 6.54732 7.53339 5.08097 8.61492 3.99944C9.69645 2.91791 11.1628 2.3095 12.6923 2.30767Z" fill="#CFA04F"/>
</svg>
