<svg width="30" height="30" viewBox="0 0 30 30" fill="none" xmlns="http://www.w3.org/2000/svg">
<path d="M19.1279 5.70596C18.2485 4.81021 17.2003 4.09758 16.0439 3.60921C14.8875 3.12085 13.6458 2.86643 12.3905 2.86067C11.1352 2.8549 9.8912 3.09789 8.73035 3.57561C7.56951 4.05332 6.51481 4.7563 5.62718 5.64393C4.73955 6.53156 4.03657 7.58626 3.55886 8.7471C3.08114 9.90795 2.83815 11.1519 2.84392 12.4072C2.84969 13.6625 3.1041 14.9042 3.59246 16.0606C4.08083 17.217 4.79346 18.2652 5.68921 19.1447C7.47688 20.8998 9.88528 21.878 12.3905 21.8665C14.8957 21.8549 17.295 20.8547 19.0664 19.0832C20.8379 17.3117 21.8382 14.9124 21.8497 12.4072C21.8612 9.90203 20.883 7.49363 19.1279 5.70596ZM3.62195 3.6387C5.86293 1.39827 8.87513 0.0985742 12.0426 0.00538061C15.2101 -0.087813 18.2935 1.03254 20.6623 3.13733C23.0311 5.24212 24.5064 8.17234 24.7864 11.3288C25.0665 14.4852 24.1301 17.6294 22.1689 20.1183L29.9833 27.9327L27.916 30L20.1016 22.1856C17.6118 24.1396 14.4703 25.0702 11.318 24.7874C8.16565 24.5046 5.23995 23.0298 3.1377 20.6638C1.03545 18.2979 -0.0849568 15.219 0.00502928 12.0553C0.0950154 8.89155 1.38861 5.88134 3.62195 3.6387Z" fill="#CFA04F"/>
</svg>
