<svg width="28" height="28" viewBox="0 0 28 28" fill="none" xmlns="http://www.w3.org/2000/svg">
<path d="M27.8689 1.38914C27.8689 1.38914 27.9007 1.3392 27.9642 1.23933C28.0278 1.13946 28.0233 0.971497 27.9506 0.735439C27.878 0.499384 27.7418 0.317801 27.5421 0.190693C27.3423 0.0635853 27.1335 0.0181904 26.9156 0.0545063L23.4292 0.926102C23.0297 1.03505 22.8118 1.28927 22.7755 1.68875L22.2853 4.46696L0.822216 7.02727C0.7859 7.02727 0.767742 7.02727 0.767742 7.02727C0.731425 7.02727 0.713267 7.02727 0.713267 7.02727C0.713267 7.06359 0.695109 7.09082 0.658792 7.10898C0.622476 7.12714 0.604317 7.13622 0.604317 7.13622C0.531684 7.13622 0.47721 7.15438 0.440893 7.19069C0.404577 7.22701 0.350102 7.28148 0.277469 7.35412C0.241153 7.39043 0.222994 7.40859 0.222994 7.40859C0.186678 7.48122 0.150361 7.57202 0.114045 7.68097C0.0777285 7.71728 0.0595703 7.73544 0.0595703 7.73544C0.0595703 7.88071 0.0595703 8.00781 0.0595703 8.11676L2.72883 18.5759L3.60043 22.0623C3.60043 22.0623 3.60043 22.0804 3.60043 22.1168C3.60043 22.1531 3.61858 22.1894 3.6549 22.2257C3.69122 22.2983 3.72753 22.3528 3.76385 22.3891C3.80017 22.4255 3.83648 22.4618 3.8728 22.4981C3.90912 22.5344 3.96359 22.5707 4.03622 22.607C4.07254 22.6434 4.0907 22.6615 4.0907 22.6615C4.19965 22.6978 4.3086 22.716 4.41755 22.716H22.721C22.9753 22.716 23.1841 22.6343 23.3475 22.4708C23.5109 22.3074 23.5926 22.0986 23.5926 21.8444C23.5926 21.5902 23.5109 21.3814 23.3475 21.2179C23.1841 21.0545 22.9753 20.9728 22.721 20.9728H5.12572L4.68992 19.2296H20.9779C21.0868 19.2296 21.1958 19.2114 21.3047 19.1751C21.3047 19.1751 21.3229 19.166 21.3592 19.1479C21.3955 19.1297 21.4137 19.1207 21.4137 19.1207C21.4863 19.0843 21.5408 19.048 21.5771 19.0117C21.5771 19.0117 21.5862 18.9935 21.6043 18.9572C21.6225 18.9209 21.6316 18.9028 21.6316 18.9028C21.7042 18.8301 21.7405 18.7938 21.7405 18.7938C21.7405 18.7938 21.7587 18.7393 21.795 18.6304C21.8313 18.5577 21.8495 18.5214 21.8495 18.5214V18.467L24.4098 2.50587L27.2969 1.7977C27.5511 1.72506 27.7418 1.58888 27.8689 1.38914ZM4.25412 17.4864L2.02066 8.66151L4.7444 8.33466L6.05179 17.4864H4.25412ZM7.79498 17.4864L6.43311 8.11676L9.15685 7.78992L9.59264 17.4864H7.79498ZM13.188 17.4864H11.3358L10.9 7.57202L13.6238 7.24517L13.188 17.4864ZM16.7288 17.4864H14.9312L15.367 7.02727L18.0907 6.70042L16.7288 17.4864ZM20.2152 17.4864H18.472L19.8884 6.48252L21.7405 6.26462L20.2152 17.4864ZM9.12961 24.9767C9.12961 24.9767 9.04336 24.8904 8.87085 24.7179C8.69835 24.5454 8.37604 24.4592 7.90393 24.4592C7.43181 24.4592 7.02325 24.6317 6.67825 24.9767C6.33324 25.3217 6.16074 25.7303 6.16074 26.2024C6.16074 26.6745 6.33324 27.083 6.67825 27.428C7.02325 27.7731 7.43181 27.9456 7.90393 27.9456C8.37604 27.9456 8.7846 27.7731 9.12961 27.428C9.47462 27.083 9.64712 26.6745 9.64712 26.2024C9.64712 25.7303 9.47462 25.3217 9.12961 24.9767ZM20.4876 24.9767C20.4876 24.9767 20.4059 24.8904 20.2424 24.7179C20.079 24.5454 19.7522 24.4592 19.2619 24.4592C18.7716 24.4592 18.354 24.6317 18.009 24.9767C17.664 25.3217 17.4915 25.7303 17.4915 26.2024C17.4915 26.6745 17.664 27.083 18.009 27.428C18.354 27.7731 18.7716 27.9456 19.2619 27.9456C19.7522 27.9456 20.1607 27.7731 20.4876 27.428C20.8144 27.083 20.9779 26.6745 20.9779 26.2024C20.9779 25.7303 20.8144 25.3217 20.4876 24.9767Z" fill="white"/>
</svg>
