<svg width="38" height="33" viewBox="0 0 38 33" fill="none" xmlns="http://www.w3.org/2000/svg">
<path d="M27.3839 0.25C23.973 0.25 20.9866 1.73035 19.125 4.23261C17.2634 1.73035 14.277 0.25 10.8661 0.25C8.15091 0.253089 5.54783 1.34302 3.62792 3.28069C1.70801 5.21835 0.62806 7.8455 0.625 10.5858C0.625 22.2552 17.7689 31.7008 18.499 32.0908C18.6914 32.1953 18.9065 32.25 19.125 32.25C19.3435 32.25 19.5586 32.1953 19.751 32.0908C20.4811 31.7008 37.625 22.2552 37.625 10.5858C37.6219 7.8455 36.542 5.21835 34.6221 3.28069C32.7022 1.34302 30.0991 0.253089 27.3839 0.25ZM19.125 29.3902C16.1088 27.6165 3.26786 19.5362 3.26786 10.5858C3.27048 8.55278 4.07185 6.60381 5.49622 5.16626C6.92059 3.72872 8.8517 2.91994 10.8661 2.9173C14.0788 2.9173 16.7762 4.64437 17.9027 7.41836C18.0022 7.66296 18.1716 7.87218 18.3892 8.01941C18.6069 8.16665 18.863 8.24526 19.125 8.24526C19.387 8.24526 19.6431 8.16665 19.8608 8.01941C20.0784 7.87218 20.2478 7.66296 20.3473 7.41836C21.4738 4.63937 24.1712 2.9173 27.3839 2.9173C29.3983 2.91994 31.3294 3.72872 32.7538 5.16626C34.1782 6.60381 34.9795 8.55278 34.9821 10.5858C34.9821 19.5229 22.1379 27.6148 19.125 29.3902Z" fill="#6B4394"/>
</svg>
